# Blender 5.2.0 LTS
# www.blender.org
o stick_static_joined
v 0.134579 0.058040 -0.003827
v 0.006442 0.058040 -0.003827
v 0.134579 0.058040 0.000021
v 0.006442 0.058040 0.000021
v 0.132599 0.055371 0.001771
v 0.008421 0.055371 0.001771
v 0.133282 0.051113 0.001771
v 0.007739 0.051113 0.001771
v 0.133282 -0.051251 0.001771
v 0.007739 -0.051251 0.001771
v 0.132599 -0.055509 0.001771
v 0.008421 -0.055509 0.001771
v 0.006442 -0.058178 0.000021
v 0.005622 -0.055055 0.001771
v 0.003438 -0.057667 0.000021
v 0.003779 -0.053692 0.001771
v 0.001526 -0.056190 0.000021
v 0.000639 -0.053863 0.000021
v 0.001526 -0.056190 -0.003827
v 0.000639 -0.053863 -0.003827
v 0.000639 0.053725 0.000021
v 0.003028 0.051340 0.001771
v 0.003779 0.053555 0.001771
v 0.005622 0.054917 0.001771
v 0.003028 -0.051478 0.001771
v 0.003438 -0.057667 -0.003827
v 0.006442 -0.058178 -0.003827
v 0.134579 -0.058178 -0.003827
v 0.134579 -0.058178 0.000021
v 0.137583 -0.057667 0.000021
v 0.135398 -0.055055 0.001771
v 0.137242 -0.053692 0.001771
v 0.137993 -0.051478 0.001771
v 0.137993 0.051340 0.001771
v 0.140382 0.053725 0.000021
v 0.137242 0.053555 0.001771
v 0.139494 0.056053 0.000021
v 0.137583 0.057529 0.000021
v 0.139494 0.056053 -0.003827
v 0.137583 0.057529 -0.003827
v 0.135398 0.054917 0.001771
v 0.137583 -0.057667 -0.003827
v 0.139494 -0.056190 -0.003827
v 0.139494 -0.056190 0.000021
v 0.140382 -0.053863 0.000021
v 0.140382 -0.053863 -0.003827
v 0.140382 0.053725 -0.003827
v 0.000639 0.053725 -0.003827
v 0.001526 0.056053 -0.003827
v 0.001526 0.056053 0.000021
v 0.003438 0.057529 0.000021
v 0.003438 0.057529 -0.003827
v 0.090744 0.002535 0.080579
v 0.096643 0.003603 0.080579
v 0.091298 -0.000524 0.081482
v 0.097196 0.000544 0.081482
v 0.091709 -0.002794 0.083789
v 0.097607 -0.001726 0.083789
v 0.091870 -0.003682 0.086998
v 0.097768 -0.002614 0.086998
v 0.091709 -0.002794 0.090107
v 0.097607 -0.001726 0.090107
v 0.091298 -0.000524 0.092414
v 0.097196 0.000544 0.092414
v 0.090744 0.002535 0.093317
v 0.096643 0.003603 0.093317
v 0.090173 0.005693 0.092414
v 0.096071 0.006761 0.092414
v 0.089762 0.007963 0.090107
v 0.095660 0.009031 0.090107
v 0.089601 0.008851 0.086998
v 0.095499 0.009919 0.086998
v 0.089762 0.007963 0.083789
v 0.095660 0.009031 0.083789
v 0.090173 0.005693 0.081482
v 0.096071 0.006761 0.081482
v 0.090744 0.002535 0.080579
v 0.096643 0.003603 0.080579
v 0.098547 0.003948 0.082184
v 0.098958 0.001678 0.082786
v 0.099280 -0.000098 0.084591
v 0.099387 -0.000690 0.086998
v 0.099280 -0.000098 0.089305
v 0.098958 0.001678 0.091110
v 0.098547 0.003948 0.091712
v 0.098118 0.006317 0.091110
v 0.097797 0.008093 0.089305
v 0.097690 0.008685 0.086998
v 0.097797 0.008093 0.084591
v 0.098118 0.006317 0.082786
v 0.098547 0.003948 0.082184
v 0.097797 0.008093 0.084591
v 0.097690 0.008685 0.086998
v 0.098118 0.006317 0.082786
v 0.097797 0.008093 0.089305
v 0.098118 0.006317 0.091110
v 0.098547 0.003948 0.082184
v 0.098547 0.003948 0.091712
v 0.098958 0.001678 0.082786
v 0.099280 -0.000098 0.084591
v 0.098958 0.001678 0.091110
v 0.099280 -0.000098 0.089305
v 0.099387 -0.000690 0.086998
v 0.111769 0.007853 0.072012
v 0.111769 -0.004491 0.072012
v 0.111769 0.007853 0.054038
v 0.111769 -0.004491 0.054038
v 0.107008 -0.004491 0.072012
v 0.107008 -0.004491 0.054038
v 0.107008 0.000685 0.069444
v 0.107008 0.000685 0.056178
v 0.107008 0.015418 0.056178
v 0.107008 0.020794 0.054038
v 0.107008 0.015418 0.069444
v 0.107008 0.020794 0.072012
v 0.111769 0.007853 0.072012
v 0.111769 -0.004491 0.072012
v 0.111769 0.007853 0.054038
v 0.111769 0.020794 0.054038
v 0.116688 0.020794 0.054038
v 0.107008 0.020794 0.072012
v 0.111769 0.020794 0.072012
v 0.107008 0.020794 0.054038
v 0.111769 0.020794 0.054038
v 0.116688 0.020794 0.054038
v 0.116847 0.020794 0.072012
v 0.116847 0.007853 0.072012
v 0.119068 0.007853 0.088702
v 0.114149 0.007853 0.089130
v 0.119227 0.007853 0.108387
v 0.114149 0.020794 0.089130
v 0.119227 0.020794 0.108387
v 0.111769 0.020794 0.072012
v 0.111769 0.007853 0.072012
v 0.116688 0.007853 0.054038
v 0.114149 0.020794 0.089130
v 0.119068 0.020794 0.088702
v 0.123988 0.007853 0.106676
v 0.119227 0.020794 0.108387
v 0.123988 0.020794 0.106676
v 0.119227 0.020794 0.108387
v 0.119227 0.007853 0.108387
v 0.103835 0.000685 0.056178
v 0.107008 0.000685 0.056178
v 0.103835 0.000685 0.069444
v 0.107008 0.000685 0.069444
v 0.103835 0.015418 0.069444
v 0.107008 0.015418 0.069444
v 0.107008 0.015418 0.056178
v 0.103835 0.015418 0.056178
v 0.103835 0.000685 0.056178
v 0.111769 0.007853 0.054038
v 0.111769 0.020794 0.072012
v 0.111769 -0.004491 0.054038
v 0.107008 0.000685 0.056178
v 0.116688 0.007853 0.054038
v 0.080431 -0.000802 0.038602
v 0.079224 0.004327 0.038602
v 0.080431 -0.000802 0.055591
v 0.079224 0.004327 0.055591
v 0.075603 0.007947 0.038602
v 0.075603 0.007947 0.055591
v 0.070776 0.009154 0.038602
v 0.070776 0.009154 0.055591
v 0.065648 0.007947 0.038602
v 0.065648 0.007947 0.055591
v 0.062027 0.004327 0.038602
v 0.062027 0.004327 0.055591
v 0.060820 -0.000802 0.038602
v 0.060820 -0.000802 0.055591
v 0.062027 -0.005629 0.038602
v 0.062027 -0.005629 0.055591
v 0.065648 -0.009249 0.038602
v 0.065648 -0.009249 0.055591
v 0.070776 -0.010456 0.038602
v 0.070776 -0.010456 0.055591
v 0.075603 -0.009249 0.038602
v 0.075603 -0.009249 0.055591
v 0.079224 -0.005629 0.038602
v 0.079224 -0.005629 0.055591
v 0.080431 -0.000802 0.038602
v 0.080431 -0.000802 0.055591
v 0.089783 -0.000802 0.000269
v 0.087068 0.008853 0.000269
v 0.086163 -0.000802 0.005061
v 0.084051 0.007042 0.005061
v 0.081939 -0.000802 0.008546
v 0.080431 0.004931 0.008546
v 0.081939 -0.000802 0.025970
v 0.080431 0.004931 0.025970
v 0.078319 0.012775 0.005061
v 0.080129 0.015791 0.000269
v 0.070776 0.014886 0.005061
v 0.076207 0.009154 0.008546
v 0.076207 0.009154 0.025970
v 0.070776 0.010663 0.008546
v 0.070776 0.010663 0.025970
v 0.065044 0.009154 0.025970
v 0.065044 0.009154 0.008546
v 0.060820 0.004931 0.025970
v 0.060820 0.004931 0.008546
v 0.059312 -0.000802 0.025970
v 0.059312 -0.000802 0.008546
v 0.060820 -0.006232 0.025970
v 0.060820 -0.006232 0.008546
v 0.065044 -0.010456 0.008546
v 0.057200 -0.008344 0.005061
v 0.062932 -0.014076 0.005061
v 0.061122 -0.017093 0.000269
v 0.070776 -0.019808 0.000269
v 0.054183 -0.010154 0.000269
v 0.055088 -0.000802 0.005061
v 0.051468 -0.000500 0.000269
v 0.057200 0.007042 0.005061
v 0.054183 0.008853 0.000269
v 0.062932 0.012775 0.005061
v 0.061122 0.015791 0.000269
v 0.070776 0.018507 0.000269
v 0.065044 -0.010456 0.025970
v 0.070776 -0.011964 0.025970
v 0.070776 -0.011964 0.008546
v 0.070776 -0.016188 0.005061
v 0.078319 -0.014076 0.005061
v 0.080129 -0.017093 0.000269
v 0.087068 -0.010154 0.000269
v 0.089783 -0.000802 0.000269
v 0.086163 -0.000802 0.005061
v 0.084051 -0.008344 0.005061
v 0.080431 -0.006232 0.008546
v 0.076207 -0.010456 0.008546
v 0.080431 -0.006232 0.025970
v 0.076207 -0.010456 0.025970
v 0.081939 -0.000802 0.025970
v 0.081939 -0.000802 0.008546
v 0.107579 -0.010529 0.002056
v 0.108001 -0.010670 0.022285
v 0.108893 -0.000675 0.002056
v 0.109315 -0.000628 0.022285
v 0.107579 0.009226 0.002056
v 0.108001 0.009367 0.022285
v 0.103778 0.018470 0.002056
v 0.104154 0.018705 0.022285
v 0.097678 0.026401 0.002056
v 0.097960 0.026729 0.022285
v 0.089748 0.032501 0.002056
v 0.089982 0.032876 0.022285
v 0.080644 0.036724 0.022285
v 0.081489 0.039821 0.023570
v 0.070650 0.038038 0.022285
v 0.070603 0.041229 0.023570
v 0.059763 0.039821 0.023570
v 0.058871 0.043247 0.022043
v 0.049674 0.035645 0.023570
v 0.047891 0.038695 0.022043
v 0.038506 0.031469 0.022043
v 0.036676 0.033299 0.002004
v 0.031280 0.022084 0.022043
v 0.029027 0.023351 0.002004
v 0.024241 0.011760 0.002004
v 0.091578 0.035645 0.023570
v 0.100259 0.028982 0.023570
v 0.106922 0.020301 0.023570
v 0.111098 0.010212 0.023570
v 0.112506 -0.000675 0.023570
v 0.111098 -0.011514 0.023570
v 0.114524 -0.012406 0.022043
v 0.114524 0.011103 0.022043
v 0.116072 -0.000675 0.022043
v 0.117011 -0.013063 0.002004
v 0.118653 -0.000675 0.002004
v 0.117011 0.011760 0.002004
v 0.109972 0.022084 0.022043
v 0.102746 0.031469 0.022043
v 0.112225 0.023351 0.002004
v 0.104576 0.033299 0.002004
v 0.093361 0.038695 0.022043
v 0.082381 0.043247 0.022043
v 0.094628 0.040947 0.002004
v 0.083038 0.045734 0.002004
v 0.070650 0.044795 0.022043
v 0.070650 0.047376 0.002004
v 0.058215 0.045734 0.002004
v 0.046624 0.040947 0.002004
v 0.107579 -0.010529 0.002056
v 0.103778 -0.019773 0.002056
v 0.108001 -0.010670 0.022285
v 0.104154 -0.020008 0.022285
v 0.111098 -0.011514 0.023570
v 0.106922 -0.021603 0.023570
v 0.114524 -0.012406 0.022043
v 0.109972 -0.023386 0.022043
v 0.117011 -0.013063 0.002004
v 0.112225 -0.024653 0.002004
v 0.097960 -0.028032 0.022285
v 0.100259 -0.030284 0.023570
v 0.102746 -0.032771 0.022043
v 0.104576 -0.034601 0.002004
v 0.089982 -0.034179 0.022285
v 0.091578 -0.036947 0.023570
v 0.093361 -0.039998 0.022043
v 0.094628 -0.042250 0.002004
v 0.089748 -0.033803 0.002056
v 0.080644 -0.038027 0.022285
v 0.081489 -0.041124 0.023570
v 0.082381 -0.044549 0.022043
v 0.070603 -0.042531 0.023570
v 0.070603 -0.046098 0.022043
v 0.058871 -0.044549 0.022043
v 0.058215 -0.047036 0.002004
v 0.047891 -0.039998 0.022043
v 0.046624 -0.042250 0.002004
v 0.036676 -0.034601 0.002004
v 0.070603 -0.048679 0.002004
v 0.083038 -0.047036 0.002004
v 0.080504 -0.037604 0.002056
v 0.070650 -0.039341 0.022285
v 0.070603 -0.038918 0.002056
v 0.060608 -0.038027 0.022285
v 0.059763 -0.041124 0.023570
v 0.049674 -0.036947 0.023570
v 0.038506 -0.032771 0.022043
v 0.031280 -0.023386 0.022043
v 0.029027 -0.024653 0.002004
v 0.024241 -0.013063 0.002004
v 0.051270 -0.034179 0.022285
v 0.040993 -0.030284 0.023570
v 0.034330 -0.021603 0.023570
v 0.026728 -0.012406 0.022043
v 0.025180 -0.000675 0.022043
v 0.022599 -0.000675 0.002004
v 0.043293 -0.028032 0.022285
v 0.037099 -0.020008 0.022285
v 0.030154 -0.011514 0.023570
v 0.028746 -0.000675 0.023570
v 0.026728 0.011103 0.022043
v 0.037474 -0.019773 0.002056
v 0.033251 -0.010670 0.022285
v 0.031937 -0.000628 0.022285
v 0.030154 0.010212 0.023570
v 0.034330 0.020301 0.023570
v 0.033673 -0.010529 0.002056
v 0.032359 -0.000675 0.002056
v 0.033673 0.009226 0.002056
v 0.033251 0.009367 0.022285
v 0.037474 0.018470 0.002056
v 0.037099 0.018705 0.022285
v 0.043246 0.026682 0.022285
v 0.040993 0.028982 0.023570
v 0.097678 -0.027703 0.002056
v 0.060748 -0.037604 0.002056
v 0.051504 -0.033803 0.002056
v 0.043574 -0.027703 0.002056
v 0.043574 0.026401 0.002056
v 0.051270 0.032876 0.022285
v 0.051504 0.032501 0.002056
v 0.060608 0.036724 0.022285
v 0.060748 0.036302 0.002056
v 0.070603 0.037616 0.002056
v 0.080504 0.036302 0.002056
v 0.103593 -0.000933 0.045002
v 0.106411 -0.000933 0.042261
v 0.102466 0.008084 0.045002
v 0.105284 0.008647 0.042261
v 0.101339 0.017100 0.042261
v 0.101339 0.017100 0.027463
v 0.095704 0.024427 0.027463
v 0.091759 0.020482 0.021800
v 0.088377 0.030062 0.027463
v 0.085560 0.024990 0.021800
v 0.078233 0.027808 0.021800
v 0.095704 0.024427 0.042261
v 0.088377 0.030062 0.042261
v 0.079924 0.034007 0.027463
v 0.079924 0.034007 0.042261
v 0.070907 0.035134 0.027463
v 0.070907 0.035134 0.042261
v 0.061327 0.034007 0.027463
v 0.061327 0.034007 0.042261
v 0.052873 0.030062 0.027463
v 0.052873 0.030062 0.042261
v 0.045547 0.024427 0.027463
v 0.045547 0.024427 0.042261
v 0.039911 0.017100 0.027463
v 0.039911 0.017100 0.042261
v 0.035966 0.008647 0.027463
v 0.035966 0.008647 0.042261
v 0.034839 -0.000933 0.027463
v 0.034839 -0.000933 0.042261
v 0.035966 -0.009950 0.027463
v 0.035966 -0.009950 0.042261
v 0.039911 -0.018404 0.027463
v 0.039911 -0.018404 0.042261
v 0.045547 -0.025730 0.027463
v 0.045547 -0.025730 0.042261
v 0.052873 -0.031365 0.027463
v 0.052873 -0.031365 0.042261
v 0.061327 -0.035310 0.027463
v 0.061327 -0.035310 0.042261
v 0.070344 -0.036437 0.027463
v 0.070344 -0.036437 0.042261
v 0.079924 -0.035310 0.027463
v 0.079924 -0.035310 0.042261
v 0.088377 -0.031365 0.027463
v 0.088377 -0.031365 0.042261
v 0.095704 -0.025730 0.027463
v 0.095704 -0.025730 0.042261
v 0.101339 -0.018404 0.027463
v 0.101339 -0.018404 0.042261
v 0.105284 -0.009950 0.027463
v 0.105284 -0.009950 0.042261
v 0.106411 -0.000933 0.027463
v 0.106411 -0.000933 0.042261
v 0.049492 -0.021785 0.021800
v 0.044983 -0.015586 0.021800
v 0.042166 -0.008260 0.021800
v 0.041039 -0.000933 0.021800
v 0.042166 0.006956 0.021800
v 0.044983 0.014283 0.021800
v 0.049492 0.020482 0.021800
v 0.055691 -0.026293 0.021800
v 0.063017 -0.029111 0.021800
v 0.070344 -0.030238 0.021800
v 0.078233 -0.029111 0.021800
v 0.085560 -0.026293 0.021800
v 0.091759 -0.021785 0.021800
v 0.096267 -0.015586 0.021800
v 0.099085 -0.008260 0.021800
v 0.100212 -0.000933 0.021800
v 0.099085 0.006956 0.021800
v 0.106411 -0.000933 0.027463
v 0.105284 0.008647 0.027463
v 0.096267 0.014283 0.021800
v 0.099085 0.015973 0.045002
v 0.094013 0.022736 0.045002
v 0.087250 0.027808 0.045002
v 0.079360 0.031189 0.045002
v 0.070907 0.032317 0.045002
v 0.061890 0.031189 0.045002
v 0.054000 0.027808 0.045002
v 0.047238 0.022736 0.045002
v 0.042166 0.015973 0.045002
v 0.038784 0.008084 0.045002
v 0.037657 -0.000933 0.045002
v 0.038784 -0.009387 0.045002
v 0.042166 -0.017277 0.045002
v 0.047238 -0.024039 0.045002
v 0.054000 -0.029111 0.045002
v 0.061890 -0.032493 0.045002
v 0.070344 -0.033620 0.045002
v 0.079360 -0.032493 0.045002
v 0.087250 -0.029111 0.045002
v 0.094013 -0.024039 0.045002
v 0.099085 -0.017277 0.045002
v 0.102466 -0.009387 0.045002
v 0.103593 -0.000933 0.045002
v 0.061890 -0.032493 0.045002
v 0.070344 -0.033620 0.045002
v 0.054000 -0.029111 0.045002
v 0.079360 -0.032493 0.045002
v 0.087250 -0.029111 0.045002
v 0.047238 -0.024039 0.045002
v 0.094013 -0.024039 0.045002
v 0.042166 -0.017277 0.045002
v 0.038784 -0.009387 0.045002
v 0.099085 -0.017277 0.045002
v 0.102466 -0.009387 0.045002
v 0.037657 -0.000933 0.045002
v 0.038784 0.008084 0.045002
v 0.103593 -0.000933 0.045002
v 0.042166 0.015973 0.045002
v 0.102466 0.008084 0.045002
v 0.047238 0.022736 0.045002
v 0.099085 0.015973 0.045002
v 0.094013 0.022736 0.045002
v 0.054000 0.027808 0.045002
v 0.061890 0.031189 0.045002
v 0.087250 0.027808 0.045002
v 0.079360 0.031189 0.045002
v 0.070907 0.032317 0.045002
v 0.085560 0.024990 0.021800
v 0.091759 0.020482 0.021800
v 0.078233 0.027808 0.021800
v 0.096267 0.014283 0.021800
v 0.099085 0.006956 0.021800
v 0.070344 0.028935 0.021800
v 0.063017 0.027808 0.021800
v 0.100212 -0.000933 0.021800
v 0.099085 -0.008260 0.021800
v 0.055691 0.024990 0.021800
v 0.049492 0.020482 0.021800
v 0.096267 -0.015586 0.021800
v 0.091759 -0.021785 0.021800
v 0.044983 0.014283 0.021800
v 0.085560 -0.026293 0.021800
v 0.042166 0.006956 0.021800
v 0.041039 -0.000933 0.021800
v 0.078233 -0.029111 0.021800
v 0.070344 -0.030238 0.021800
v 0.042166 -0.008260 0.021800
v 0.063017 -0.029111 0.021800
v 0.044983 -0.015586 0.021800
v 0.049492 -0.021785 0.021800
v 0.055691 0.024990 0.021800
v 0.063017 0.027808 0.021800
v 0.070344 0.028935 0.021800
v 0.100212 -0.000933 0.021800
v 0.055691 -0.026293 0.021800
vn 0.7996 0.3577 0.4824
vn 0.8748 0.0804 0.4778
vn 0.9964 0.0842 -0.0000
vn 0.9159 0.4014 -0.0000
vn 0.1725 0.8685 0.4646
vn -0.1725 0.8685 0.4647
vn -0.0335 0.3162 0.9481
vn 0.0335 0.3163 0.9481
vn 0.1588 0.2358 0.9587
vn 0.5269 0.7002 0.4818
vn -0.2907 0.0161 0.9567
vn -0.2907 -0.0161 0.9567
vn -0.0000 -0.0000 1.0000
vn -0.8748 0.0804 0.4777
vn -0.8748 -0.0803 0.4777
vn -0.0335 -0.3163 0.9481
vn -0.2638 -0.0985 0.9595
vn -0.1588 -0.2358 0.9587
vn 0.2907 0.0161 0.9567
vn 0.2907 -0.0161 0.9567
vn -0.5269 -0.7002 0.4818
vn -0.1724 -0.8685 0.4648
vn 0.5962 0.8029 -0.0000
vn -0.9965 -0.0841 -0.0000
vn -0.9159 -0.4014 -0.0000
vn -0.7996 -0.3577 0.4824
vn -0.2638 0.0985 0.9595
vn -0.7996 0.3577 0.4823
vn 0.1588 -0.2358 0.9587
vn 0.2638 -0.0985 0.9595
vn 0.0335 -0.3163 0.9481
vn 0.7996 -0.3577 0.4823
vn 0.8748 -0.0804 0.4778
vn -0.1588 0.2358 0.9587
vn -0.5269 0.7003 0.4817
vn 0.5962 -0.8029 -0.0000
vn 0.5269 -0.7002 0.4817
vn 0.1725 -0.8685 0.4647
vn 0.1811 -0.9835 -0.0000
vn -0.5962 -0.8029 -0.0000
vn -0.1811 -0.9835 -0.0000
vn -0.5962 0.8029 -0.0000
vn -0.9159 0.4014 -0.0000
vn 0.9965 -0.0842 -0.0000
vn 0.2638 0.0985 0.9595
vn -0.9965 0.0841 -0.0000
vn 0.1811 0.9835 -0.0000
vn -0.1811 0.9835 -0.0000
vn 0.9159 -0.4014 -0.0000
vn -0.8490 -0.1538 -0.5055
vn -0.9840 -0.1781 0.0042
vn -0.9898 0.1422 0.0039
vn -0.8625 0.1649 -0.4784
vn -0.4973 -0.0900 -0.8629
vn -0.5272 0.2257 -0.8192
vn 0.8771 0.4802 0.0038
vn 0.7480 0.4564 0.4819
vn 0.8470 0.1533 0.5090
vn 0.9840 0.1781 0.0041
vn -0.2664 -0.0482 -0.9627
vn -0.3035 0.2560 -0.9178
vn -0.8470 -0.1534 0.5090
vn -0.4973 -0.0900 0.8629
vn -0.5271 0.2256 0.8193
vn -0.8605 0.1652 0.4818
vn 0.8492 0.1537 -0.5053
vn 0.7500 0.4568 -0.4784
vn 0.0041 0.0007 1.0000
vn 0.5010 0.0906 0.8607
vn 0.4179 0.3966 0.8173
vn -0.0525 0.3119 0.9487
vn -0.1782 0.9840 -0.0001
vn -0.1782 0.9840 0.0001
vn -0.1782 0.9840 -0.0000
vn 0.5008 0.0907 -0.8608
vn 0.2744 0.0497 -0.9603
vn 0.2026 0.3470 -0.9157
vn 0.4179 0.3966 -0.8173
vn 0.2742 0.6849 0.6751
vn -0.1080 0.6190 0.7779
vn -0.4933 0.5465 -0.6768
vn -0.7774 0.4949 -0.3882
vn -0.3103 0.5685 -0.7619
vn -0.7756 0.4948 0.3919
vn -0.8774 0.4798 0.0039
vn 0.6535 0.7569 0.0040
vn 0.5529 0.7353 0.3919
vn -0.1781 0.9840 -0.0001
vn -0.1781 0.9840 0.0001
vn 0.0982 0.6425 -0.7600
vn 0.2742 0.6848 -0.6751
vn 0.5545 0.7361 -0.3882
vn -0.4934 0.5464 0.6768
vn -0.1781 0.9840 -0.0000
vn -0.7071 -0.0001 -0.7071
vn -0.7072 0.0002 -0.7070
vn -0.7071 -0.0001 0.7072
vn -0.7072 0.0002 0.7070
vn 1.0000 -0.0000 -0.0000
vn 0.7071 0.0001 0.7072
vn 0.7072 -0.0002 0.7070
vn -0.0000 -0.7071 -0.7071
vn -0.0000 -0.0000 -1.0000
vn 0.5773 -0.5774 -0.5773
vn 0.5773 -0.5774 0.5774
vn -0.0000 -1.0000 -0.0000
vn -0.7226 0.6775 -0.1373
vn -0.7213 0.6910 -0.0468
vn -1.0000 -0.0000 -0.0000
vn -0.0000 -0.9805 0.1967
vn -0.0000 -0.9905 0.1377
vn 0.8861 -0.4590 0.0638
vn 0.6939 -0.7060 0.1415
vn -1.0000 -0.0000 0.0001
vn -0.5816 0.7218 0.3751
vn -0.0000 -0.7071 0.7071
vn 0.6866 -0.7030 0.1854
vn 0.0001 -0.9669 0.2550
vn -0.7091 0.7051 -0.0062
vn 0.7213 0.6909 -0.0488
vn 0.7226 0.6775 -0.1372
vn 0.7091 0.7051 -0.0063
vn 0.5816 0.7219 0.3750
vn -0.0000 0.3384 0.9410
vn 0.7071 0.7071 -0.0000
vn -0.0000 1.0000 -0.0000
vn 0.2403 0.8635 0.4435
vn 0.2676 0.9635 -0.0000
vn 0.5040 0.8637 -0.0000
vn 0.4494 0.7695 0.4538
vn -0.2545 0.9671 -0.0000
vn -0.2294 0.8671 0.4422
vn -0.4438 0.7720 0.4550
vn -0.4981 0.8671 -0.0000
vn 0.4927 -0.8702 -0.0000
vn 0.8736 -0.4866 -0.0000
vn -0.8671 -0.4981 -0.0000
vn -0.7721 -0.4438 0.4549
vn -0.4438 -0.7720 0.4550
vn -0.4981 -0.8671 -0.0000
vn -0.8702 0.4927 -0.0000
vn -1.0000 0.0069 -0.0000
vn 0.8702 0.4927 -0.0000
vn 0.4927 0.8702 -0.0000
vn 0.4927 0.8702 -0.0003
vn 1.0000 0.0069 -0.0000
vn -0.3695 -0.6350 0.6784
vn -0.6364 -0.3689 0.6774
vn -0.6943 -0.4056 0.5946
vn -0.4064 -0.6920 0.5967
vn 0.8671 -0.4981 -0.0000
vn 0.7720 -0.4439 0.4549
vn 0.8902 0.0060 0.4555
vn 1.0000 0.0068 -0.0000
vn 0.7695 0.4493 0.4538
vn 0.8637 0.5040 -0.0000
vn 0.0069 -1.0000 -0.0000
vn 0.0060 -0.8902 0.4555
vn 0.0068 -1.0000 -0.0000
vn -0.7341 0.0038 0.6790
vn -0.8017 0.0034 0.5978
vn 0.0057 -0.7342 0.6789
vn -1.0000 0.0068 0.0004
vn -0.8903 0.0060 0.4554
vn 0.3716 -0.6363 0.6760
vn 0.4077 -0.6951 0.5921
vn 0.6942 -0.4057 0.5946
vn 0.6364 -0.3689 0.6774
vn 0.6928 0.4086 0.5942
vn 0.6349 0.3722 0.6771
vn 0.7341 0.0037 0.6791
vn 0.8017 0.0032 0.5977
vn 0.3723 0.6349 0.6770
vn 0.2034 0.7185 0.6651
vn -0.8736 -0.4866 -0.0000
vn -0.4866 -0.8736 -0.0000
vn 0.2425 0.9701 -0.0000
vn 0.4493 -0.7695 0.4538
vn 0.5040 -0.8637 -0.0000
vn -0.8637 0.5040 -0.0000
vn -0.7695 0.4493 0.4538
vn 0.4086 0.6928 0.5942
vn -0.0065 -0.8016 0.5979
vn 0.2232 0.7811 0.5832
vn -0.3689 0.6365 0.6773
vn -0.4056 0.6943 0.5946
vn -0.6928 0.4086 0.5942
vn -0.6348 0.3721 0.6771
vn -0.1961 0.7201 0.6656
vn -0.2159 0.7831 0.5832
vn -0.4866 0.8736 -0.0003
vn -0.4866 0.8736 -0.0000
vn -0.2290 0.9734 -0.0000
vn -0.2079 0.7791 0.5914
vn -0.2578 0.9660 0.0216
vn -0.0001 0.9998 0.0213
vn 0.0004 0.8065 0.5912
vn 0.2578 0.9660 0.0217
vn 0.2079 0.7791 0.5913
vn 0.4996 0.8660 0.0219
vn 0.4029 0.6980 0.5921
vn 0.8066 -0.0005 0.5912
vn 0.7790 0.2079 0.5915
vn 0.9660 0.2578 0.0216
vn 0.9998 0.0002 0.0213
vn -0.5705 0.5699 0.5913
vn -0.6979 0.4028 0.5922
vn -0.8660 0.4996 0.0219
vn -0.7070 0.7069 0.0216
vn 0.6978 0.4029 0.5922
vn 0.8659 0.4998 0.0216
vn -0.4029 -0.6978 0.5922
vn 0.0229 0.0395 0.9990
vn 0.0177 0.0423 0.9989
vn -0.3083 -0.7483 0.5874
vn -0.0118 -0.0432 0.9990
vn -0.0001 -0.0434 0.9991
vn 0.0432 -0.0118 0.9990
vn 0.0434 0.0001 0.9991
vn -0.8065 -0.0004 0.5912
vn -0.7791 0.2080 0.5914
vn -0.0229 0.0395 0.9990
vn -0.0118 0.0432 0.9990
vn -0.2100 0.7850 0.5827
vn -0.4070 0.7037 0.5824
vn 0.0394 0.0228 0.9990
vn 0.0432 0.0118 0.9990
vn 0.7850 0.2100 0.5827
vn 0.7037 0.4070 0.5824
vn 0.0394 -0.0228 0.9990
vn 0.0324 -0.0323 0.9990
vn 0.5747 -0.5748 0.5825
vn 0.7037 -0.4070 0.5823
vn 0.7013 -0.7013 0.1279
vn 0.8588 -0.4962 0.1278
vn 0.4070 0.7037 0.5823
vn 0.5748 0.5747 0.5825
vn 0.7013 0.7013 0.1279
vn 0.4962 0.8588 0.1278
vn -0.4962 0.8588 0.1277
vn -0.7013 0.7013 0.1279
vn -0.5747 0.5747 0.5825
vn -0.7791 -0.2079 0.5914
vn -0.0395 -0.0228 0.9990
vn -0.0323 -0.0324 0.9990
vn 0.5699 0.5706 0.5913
vn -0.0228 -0.0394 0.9990
vn 0.7849 -0.2104 0.5829
vn 0.8123 -0.0003 0.5832
vn -0.4071 -0.7038 0.5823
vn -0.2101 -0.7849 0.5829
vn 0.9580 -0.2568 0.1276
vn 0.9918 -0.0002 0.1276
vn 0.9581 0.2565 0.1276
vn -0.4962 -0.8588 0.1277
vn -0.2565 -0.9581 0.1275
vn 0.5705 -0.5699 0.5914
vn 0.4029 -0.6978 0.5922
vn -0.0324 0.0323 0.9990
vn 0.0324 0.0323 0.9990
vn -0.5748 -0.5747 0.5825
vn -0.7013 -0.7013 0.1279
vn 0.8588 0.4962 0.1277
vn 0.0118 -0.0432 0.9990
vn -0.7849 -0.2101 0.5829
vn -0.9581 -0.2565 0.1276
vn -0.8588 -0.4962 0.1278
vn -0.7037 -0.4069 0.5824
vn 0.0002 -0.8123 0.5833
vn 0.0002 -0.9918 0.1276
vn 0.2568 -0.9580 0.1276
vn 0.2102 -0.7849 0.5829
vn 0.2578 -0.9660 0.0217
vn 0.2079 -0.7792 0.5913
vn 0.4998 -0.8659 0.0217
vn 0.0228 -0.0395 0.9990
vn 0.4070 -0.7038 0.5823
vn 0.4962 -0.8588 0.1277
vn -0.4998 0.8659 0.0217
vn -0.4029 0.6978 0.5922
vn -0.6980 -0.4028 0.5921
vn -0.0394 0.0228 0.9990
vn -0.7037 0.4070 0.5823
vn -0.8588 0.4962 0.1278
vn 0.6979 -0.4028 0.5921
vn 0.8660 -0.4996 0.0219
vn 0.7070 -0.7069 0.0216
vn -0.3805 -0.9245 0.0218
vn -0.4998 -0.8659 0.0217
vn -0.0433 -0.0118 0.9990
vn 0.3121 0.7540 0.5780
vn -0.8123 0.0004 0.5832
vn -0.7849 0.2103 0.5829
vn -0.9580 0.2568 0.1276
vn -0.9918 0.0002 0.1276
vn -0.2565 0.9581 0.1276
vn -0.9660 0.2578 0.0216
vn -0.0431 0.0118 0.9990
vn -0.0434 -0.0000 0.9991
vn 0.7792 -0.2080 0.5913
vn -0.0002 -0.9998 0.0213
vn -0.1308 -0.9912 0.0210
vn -0.1055 -0.8012 0.5891
vn 0.0004 -0.8065 0.5912
vn -0.5706 -0.5698 0.5914
vn 0.0003 0.8123 0.5832
vn 0.0002 0.9918 0.1276
vn 0.3792 0.9166 0.1265
vn 0.1065 0.8068 0.5812
vn -0.0001 0.0434 0.9991
vn 0.0059 0.0442 0.9990
vn 0.9660 -0.2578 0.0217
vn 0.1301 0.9834 0.1265
vn -0.8660 -0.4996 0.0219
vn -0.9659 -0.2578 0.0217
vn 0.7069 0.7070 0.0216
vn -0.7069 -0.7069 0.0216
vn -0.9998 0.0002 0.0213
vn -0.8936 -0.2503 0.3725
vn -0.6759 -0.1928 0.7113
vn -0.6927 0.0028 0.7213
vn -0.9244 0.0034 0.3815
vn -0.8002 -0.4809 0.3585
vn -0.6273 -0.3768 0.6816
vn -0.8868 -0.2491 -0.3892
vn -0.7937 -0.4731 -0.3824
vn 0.7938 0.4731 -0.3822
vn 0.6560 0.6561 -0.3731
vn 0.6632 0.6632 0.3469
vn 0.8001 0.4808 0.3586
vn 0.4987 0.4987 -0.7089
vn 0.3480 0.5994 -0.7209
vn 0.4731 0.7938 -0.3822
vn -0.6560 -0.6561 -0.3731
vn -0.5994 -0.3480 -0.7208
vn -0.4987 -0.4987 -0.7089
vn -0.4730 -0.7938 -0.3823
vn -0.3480 -0.5994 -0.7209
vn -0.1776 -0.6493 -0.7395
vn -0.2483 -0.8867 -0.3899
vn 0.0035 -0.9181 -0.3963
vn 0.2517 -0.8857 -0.3901
vn 0.2536 -0.8927 0.3726
vn 0.0034 -0.9244 0.3815
vn -0.4808 -0.8002 0.3585
vn -0.6632 -0.6632 0.3469
vn 0.9182 -0.0035 -0.3962
vn 0.8867 0.2483 -0.3900
vn 0.8936 0.2504 0.3725
vn 0.9243 -0.0034 0.3816
vn -0.4731 0.7937 -0.3823
vn -0.4809 0.8002 0.3584
vn -0.2504 0.8936 0.3725
vn -0.2483 0.8868 -0.3898
vn 0.4731 -0.7938 -0.3823
vn 0.4809 -0.8002 0.3585
vn -0.9181 0.0039 -0.3963
vn -0.8926 0.2536 0.3727
vn -0.8856 0.2509 -0.3907
vn -0.8002 0.4809 0.3585
vn -0.7938 0.4731 -0.3823
vn -0.2503 -0.8936 0.3725
vn -0.6632 0.6632 0.3469
vn -0.6561 0.6560 -0.3731
vn 0.4807 0.8002 0.3585
vn 0.2516 0.8857 -0.3901
vn 0.2536 0.8926 0.3727
vn 0.7938 -0.4731 -0.3822
vn 0.8857 -0.2517 -0.3901
vn 0.8926 -0.2536 0.3727
vn 0.8002 -0.4807 0.3585
vn -0.1095 0.9187 0.3796
vn -0.1114 0.9123 -0.3940
vn 0.6632 -0.6632 0.3468
vn 0.6561 -0.6560 -0.3731
vn 0.1185 0.9117 -0.3934
vn 0.1162 0.9182 0.3788
vn -0.4987 0.4987 -0.7089
vn -0.5994 0.3480 -0.7209
vn -0.6501 -0.1794 -0.7384
vn -0.0859 0.6656 -0.7414
vn -0.1776 0.6493 -0.7395
vn 0.1807 0.6487 -0.7393
vn 0.6493 0.1776 -0.7395
vn 0.5994 0.3480 -0.7209
vn 0.1807 -0.6487 -0.7393
vn 0.0031 -0.6678 -0.7443
vn 0.6273 -0.3767 0.6816
vn 0.6755 -0.1955 0.7110
vn 0.4987 -0.4987 -0.7089
vn 0.5994 -0.3480 -0.7209
vn 0.3480 -0.5994 -0.7209
vn -0.3480 0.5994 -0.7209
vn 0.6678 -0.0031 -0.7443
vn 0.6487 -0.1807 -0.7393
vn 0.5276 0.5276 0.6658
vn 0.3768 0.6273 0.6816
vn -0.5276 -0.5276 0.6659
vn -0.6679 -0.0040 -0.7442
vn 0.6273 0.3767 0.6816
vn 0.6760 0.1927 0.7113
vn -0.3768 -0.6272 0.6816
vn 0.5276 -0.5276 0.6658
vn 0.3767 -0.6273 0.6816
vn 0.1955 -0.6754 0.7110
vn -0.1927 0.6759 0.7113
vn -0.0837 0.6905 0.7185
vn -0.6755 0.1955 0.7110
vn -0.6272 0.3768 0.6816
vn -0.5276 0.5276 0.6658
vn -0.3768 0.6272 0.6816
vn 0.1955 0.6755 0.7110
vn 0.0028 -0.6927 0.7212
vn -0.1927 -0.6760 0.7113
vn 0.6927 -0.0028 0.7213
vn -0.6480 0.1789 -0.7403
vn 0.0917 0.6648 -0.7414
vn 0.0890 0.6898 0.7185
vt 0.323309 0.642994
vt 0.320344 0.644158
vt 0.322074 0.648746
vt 0.325944 0.646692
vt 0.326356 0.639228
vt 0.328415 0.520900
vt 0.325450 0.523571
vt 0.323474 0.636420
vt 0.322568 0.638680
vt 0.325038 0.641419
vt 0.319850 0.518983
vt 0.179112 0.516518
vt 0.178453 0.521243
vt 0.320344 0.523776
vt 0.322568 0.515765
vt 0.176477 0.513163
vt 0.173347 0.520900
vt 0.176065 0.517134
vt 0.174253 0.518641
vt 0.317709 0.640803
vt 0.318368 0.636078
vt 0.176477 0.633544
vt 0.176971 0.638338
vt 0.171783 0.515902
vt 0.170465 0.518093
vt 0.328662 0.644432
vt 0.174747 0.508575
vt 0.170877 0.510629
vt 0.173512 0.514327
vt 0.322815 0.519736
vt 0.325532 0.516997
vt 0.172194 0.636078
vt 0.174006 0.637584
vt 0.171371 0.633750
vt 0.171289 0.640323
vt 0.174253 0.641556
vt 0.324626 0.521243
vt 0.327262 0.518641
vt 0.165936 0.641556
vt 0.169559 0.638680
vt 0.168406 0.636420
vt 0.164124 0.638406
vt 0.168159 0.512889
vt 0.166265 0.515970
vt 0.330885 0.515765
vt 0.328332 0.513368
vt 0.172359 0.646075
vt 0.320756 0.640186
vt 0.324462 0.511245
vt 0.330556 0.641351
vt 0.332697 0.518915
vt 0.168489 0.643953
vt 0.521391 0.060549
vt 0.514341 0.060549
vt 0.514341 0.073217
vt 0.521391 0.073217
vt 0.528120 0.060549
vt 0.528120 0.073217
vt 0.473643 0.073217
vt 0.480212 0.073217
vt 0.480212 0.060549
vt 0.473643 0.060549
vt 0.535010 0.060549
vt 0.535010 0.073217
vt 0.507611 0.060549
vt 0.500721 0.060549
vt 0.500721 0.073217
vt 0.507611 0.073217
vt 0.466753 0.060549
vt 0.466753 0.073217
vt 0.493832 0.060549
vt 0.487102 0.060549
vt 0.487102 0.073217
vt 0.493832 0.073217
vt 0.480693 0.040065
vt 0.480693 0.045456
vt 0.500721 0.045456
vt 0.500721 0.040065
vt 0.460024 0.060549
vt 0.453134 0.060549
vt 0.453134 0.073217
vt 0.460024 0.073217
vt 0.487102 0.078607
vt 0.493832 0.078607
vt 0.528120 0.078607
vt 0.521391 0.078607
vt 0.535010 0.078607
vt 0.507611 0.078607
vt 0.514341 0.078607
vt 0.473643 0.078607
vt 0.480212 0.078607
vt 0.498158 0.035394
vt 0.483257 0.035394
vt 0.453134 0.078607
vt 0.460024 0.078607
vt 0.466753 0.078607
vt 0.500721 0.078607
vt 0.498158 0.050128
vt 0.483257 0.050128
vt 0.488063 0.052823
vt 0.493351 0.052823
vt 0.493351 0.032698
vt 0.488063 0.032698
vt 0.694141 0.010166
vt 0.694141 0.003254
vt 0.665654 0.003254
vt 0.665654 0.010166
vt 0.605120 0.003254
vt 0.605120 0.010166
vt 0.633606 0.010166
vt 0.633606 0.003254
vt 0.543027 0.054267
vt 0.543027 0.064680
vt 0.571180 0.064680
vt 0.598220 0.054267
vt 0.598220 0.014979
vt 0.586759 0.020754
vt 0.586759 0.049279
vt 0.554711 0.049279
vt 0.598220 0.004523
vt 0.571180 0.004523
vt 0.693474 0.025610
vt 0.731308 0.025610
vt 0.731308 0.014673
vt 0.693474 0.014673
vt 0.693474 0.092811
vt 0.731308 0.092811
vt 0.731308 0.064723
vt 0.693474 0.064723
vt 0.731308 0.004260
vt 0.770811 0.014673
vt 0.770811 0.004260
vt 0.651300 0.014673
vt 0.651300 0.025610
vt 0.554711 0.020754
vt 0.543027 0.014979
vt 0.651300 0.064723
vt 0.651300 0.092811
vt 0.770811 0.025610
vt 0.731308 0.053698
vt 0.693474 0.053698
vt 0.770811 0.053698
vt 0.651300 0.053698
vt 0.641841 0.025610
vt 0.641841 0.053698
vt 0.608680 0.054267
vt 0.608680 0.014979
vt 0.635721 0.054267
vt 0.635721 0.014979
vt 0.543027 0.004523
vt 0.770811 0.064723
vt 0.571180 0.075530
vt 0.543027 0.075530
vt 0.726189 0.010166
vt 0.726189 0.003254
vt 0.598220 0.064680
vt 0.955458 0.220849
vt 0.995119 0.220849
vt 0.995119 0.206633
vt 0.955458 0.206633
vt 0.995119 0.050576
vt 0.955458 0.050576
vt 0.955458 0.064791
vt 0.995119 0.064791
vt 0.938536 0.005296
vt 0.938536 0.042152
vt 0.949773 0.042152
vt 0.949773 0.005296
vt 0.995119 0.107333
vt 0.955458 0.107333
vt 0.955458 0.121549
vt 0.995119 0.121549
vt 0.882283 0.042152
vt 0.893586 0.042152
vt 0.893586 0.005296
vt 0.882283 0.005296
vt 0.972314 0.005296
vt 0.972314 0.042152
vt 0.983551 0.042152
vt 0.983551 0.005296
vt 0.961076 0.005296
vt 0.961076 0.042152
vt 0.943559 0.121549
vt 0.943559 0.107333
vt 0.930008 0.107333
vt 0.930008 0.121549
vt 0.995119 0.164091
vt 0.955458 0.164091
vt 0.955458 0.178307
vt 0.995119 0.178307
vt 0.955458 0.192523
vt 0.995119 0.192523
vt 0.927298 0.005296
vt 0.927298 0.042152
vt 0.955458 0.135765
vt 0.995119 0.135765
vt 0.943559 0.093118
vt 0.930008 0.093118
vt 0.943559 0.135765
vt 0.995119 0.093118
vt 0.955458 0.093118
vt 0.943559 0.149875
vt 0.930008 0.149875
vt 0.930008 0.164091
vt 0.943559 0.164091
vt 0.930008 0.192523
vt 0.943559 0.192523
vt 0.943559 0.178307
vt 0.930008 0.178307
vt 0.943559 0.206633
vt 0.943559 0.220849
vt 0.904823 0.005296
vt 0.904823 0.042152
vt 0.916061 0.042152
vt 0.916061 0.005296
vt 0.994788 0.042152
vt 0.994788 0.005296
vt 0.955458 0.149875
vt 0.995119 0.149875
vt 0.995119 0.079007
vt 0.955458 0.079007
vt 0.930008 0.206633
vt 0.930008 0.135765
vt 0.930008 0.220849
vt 0.943559 0.064791
vt 0.930008 0.064791
vt 0.930008 0.079007
vt 0.943559 0.079007
vt 0.943559 0.050576
vt 0.930008 0.050576
vt 0.871045 0.005296
vt 0.871045 0.042152
vt 0.859808 0.005296
vt 0.859808 0.042152
vt 0.188227 0.047417
vt 0.188227 0.077931
vt 0.206678 0.077931
vt 0.206678 0.047417
vt 0.225129 0.077931
vt 0.225129 0.047417
vt 0.243634 0.077931
vt 0.243634 0.047417
vt 0.317492 0.047417
vt 0.299041 0.047417
vt 0.299041 0.077931
vt 0.317492 0.077931
vt 0.151271 0.047417
vt 0.132820 0.047417
vt 0.132820 0.077931
vt 0.151271 0.077931
vt 0.280536 0.047417
vt 0.280536 0.077931
vt 0.022007 0.047417
vt 0.022007 0.042230
vt 0.003556 0.042230
vt 0.003556 0.047417
vt 0.225129 0.042230
vt 0.206678 0.042230
vt 0.114369 0.042230
vt 0.095864 0.042230
vt 0.095864 0.047417
vt 0.114369 0.047417
vt 0.391349 0.042230
vt 0.409800 0.042230
vt 0.409800 0.036392
vt 0.391349 0.036392
vt 0.058963 0.042230
vt 0.077413 0.042230
vt 0.077413 0.036392
vt 0.058963 0.036392
vt 0.132820 0.042230
vt 0.151271 0.042230
vt 0.151271 0.036392
vt 0.132820 0.036392
vt 0.151271 0.005922
vt 0.132820 0.005922
vt 0.022007 0.036392
vt 0.040512 0.036392
vt 0.040512 0.005922
vt 0.022007 0.005922
vt 0.391349 0.005922
vt 0.372898 0.005922
vt 0.372898 0.036392
vt 0.077413 0.047417
vt 0.280536 0.042230
vt 0.262085 0.042230
vt 0.262085 0.047417
vt 0.243634 0.042230
vt 0.114369 0.036392
vt 0.095864 0.036392
vt 0.243634 0.036392
vt 0.225129 0.036392
vt 0.114369 0.005922
vt 0.095864 0.005922
vt 0.077413 0.005922
vt 0.243634 0.005922
vt 0.225129 0.005922
vt 0.372898 0.047417
vt 0.391349 0.047417
vt 0.372898 0.042230
vt 0.040512 0.042230
vt 0.262085 0.036392
vt 0.262085 0.005922
vt 0.058963 0.005922
vt 0.188227 0.042230
vt 0.299041 0.036392
vt 0.299041 0.005922
vt 0.280536 0.005922
vt 0.280536 0.036392
vt 0.206678 0.036392
vt 0.206678 0.005922
vt 0.188227 0.005922
vt 0.188227 0.036392
vt 0.409800 0.077931
vt 0.409800 0.047417
vt 0.391349 0.077931
vt 0.169776 0.042230
vt 0.169776 0.036392
vt 0.169776 0.005922
vt 0.169776 0.077931
vt 0.169776 0.047417
vt 0.058963 0.047417
vt 0.354393 0.042230
vt 0.354393 0.036392
vt 0.354393 0.005922
vt 0.354393 0.047417
vt 0.354393 0.077931
vt 0.372898 0.077931
vt 0.003556 0.077931
vt 0.022007 0.077931
vt 0.299041 0.042230
vt 0.003556 0.036392
vt 0.317492 0.036392
vt 0.335942 0.036392
vt 0.335942 0.005922
vt 0.317492 0.005922
vt 0.409800 0.005922
vt 0.114369 0.077931
vt 0.335942 0.042230
vt 0.317492 0.042230
vt 0.335942 0.047417
vt 0.428305 0.077931
vt 0.446756 0.077931
vt 0.446756 0.047417
vt 0.428305 0.047417
vt 0.040512 0.047417
vt 0.428305 0.036392
vt 0.428305 0.005922
vt 0.003556 0.005922
vt 0.446756 0.036392
vt 0.428305 0.042230
vt 0.446756 0.042230
vt 0.335942 0.077931
vt 0.446756 0.005922
vt 0.058963 0.077931
vt 0.077413 0.077931
vt 0.262085 0.077931
vt 0.040512 0.077931
vt 0.095864 0.077931
vt 0.123100 0.088801
vt 0.123100 0.081836
vt 0.106379 0.081836
vt 0.106379 0.088801
vt 0.141172 0.088801
vt 0.141172 0.081836
vt 0.123100 0.115129
vt 0.141172 0.115129
vt 0.347684 0.115129
vt 0.364406 0.115129
vt 0.364406 0.088801
vt 0.347684 0.088801
vt 0.364406 0.129865
vt 0.384086 0.129865
vt 0.384086 0.115129
vt 0.157894 0.115129
vt 0.141172 0.129865
vt 0.157894 0.129865
vt 0.175645 0.115129
vt 0.175645 0.129865
vt 0.192302 0.129865
vt 0.192302 0.115129
vt 0.209924 0.115129
vt 0.226646 0.115129
vt 0.226646 0.088801
vt 0.209924 0.088801
vt 0.175645 0.088801
vt 0.157894 0.088801
vt 0.312054 0.115129
vt 0.328776 0.115129
vt 0.328776 0.088801
vt 0.312054 0.088801
vt 0.037112 0.115129
vt 0.037112 0.088801
vt 0.020455 0.088801
vt 0.020455 0.115129
vt 0.243560 0.115129
vt 0.243560 0.088801
vt 0.106379 0.115129
vt 0.088692 0.088801
vt 0.088692 0.115129
vt 0.071971 0.088801
vt 0.071971 0.115129
vt 0.192302 0.088801
vt 0.530529 0.229931
vt 0.402994 0.229931
vt 0.402994 0.246739
vt 0.530529 0.246739
vt 0.053834 0.088801
vt 0.053834 0.115129
vt 0.384086 0.088801
vt 0.400808 0.115129
vt 0.400808 0.088801
vt 0.278418 0.115129
vt 0.295140 0.115129
vt 0.295140 0.088801
vt 0.278418 0.088801
vt 0.003734 0.088801
vt 0.003734 0.115129
vt 0.260282 0.088801
vt 0.260282 0.115129
vt 0.421774 0.115129
vt 0.421774 0.088801
vt 0.053834 0.129865
vt 0.071971 0.129865
vt 0.123100 0.129865
vt 0.003734 0.129865
vt 0.020455 0.129865
vt 0.400808 0.129865
vt 0.328776 0.129865
vt 0.347684 0.129865
vt 0.226646 0.129865
vt 0.209924 0.129865
vt 0.278418 0.081836
vt 0.295140 0.081836
vt 0.260282 0.129865
vt 0.278418 0.129865
vt 0.243560 0.129865
vt 0.037112 0.129865
vt 0.312054 0.129865
vt 0.295140 0.129865
vt 0.364406 0.081836
vt 0.384086 0.081836
vt 0.157894 0.081836
vt 0.106379 0.129865
vt 0.347684 0.081836
vt 0.328776 0.081836
vt 0.175645 0.081836
vt 0.260282 0.081836
vt 0.243560 0.081836
vt 0.226646 0.081836
vt 0.020455 0.081836
vt 0.003734 0.081836
vt 0.088692 0.081836
vt 0.071971 0.081836
vt 0.053834 0.081836
vt 0.037112 0.081836
vt 0.400808 0.081836
vt 0.209924 0.081836
vt 0.192302 0.081836
vt 0.312054 0.081836
vt 0.208059 0.261583
vt 0.238029 0.209708
vt 0.228511 0.212263
vt 0.205551 0.252064
vt 0.415728 0.277504
vt 0.517795 0.277504
vt 0.526155 0.262955
vt 0.407303 0.262955
vt 0.257388 0.212263
vt 0.247869 0.209708
vt 0.213011 0.270108
vt 0.219957 0.277073
vt 0.228511 0.282022
vt 0.265941 0.217211
vt 0.526155 0.213715
vt 0.407303 0.213715
vt 0.272887 0.224176
vt 0.238029 0.284576
vt 0.247869 0.284576
vt 0.277839 0.232701
vt 0.505897 0.187280
vt 0.427562 0.187280
vt 0.415728 0.199167
vt 0.517795 0.199167
vt 0.491362 0.178890
vt 0.442161 0.178890
vt 0.475154 0.174560
vt 0.458369 0.174560
vt 0.475154 0.302110
vt 0.491362 0.297753
vt 0.442161 0.297753
vt 0.458369 0.302110
vt 0.219957 0.217211
vt 0.205551 0.242221
vt 0.427562 0.289363
vt 0.505897 0.289363
vt 0.088692 0.129865
vt 0.257388 0.282022
vt 0.280348 0.242221
vt 0.265941 0.277073
vt 0.280348 0.252064
vt 0.272887 0.270108
vt 0.277839 0.261583
vt 0.421774 0.129865
vt 0.421774 0.081836
vt 0.213011 0.224176
vt 0.208059 0.232701
s 1
f 30/1/1 29/2/2 28/3/3
f 28/3/3 42/4/4 30/1/1
f 45/5/5 35/6/6 34/7/7
f 34/7/7 33/8/8 45/5/5
f 45/5/5 33/8/8 32/9/9
f 32/9/9 44/10/10 45/5/5
f 5/11/11 6/12/12 8/13/13
f 8/13/13 7/14/13 5/11/11
f 5/11/11 3/15/14 4/16/15
f 4/16/15 6/12/12 5/11/11
f 22/17/16 8/13/13 24/18/17
f 24/18/17 23/19/18 22/17/16
f 11/20/19 9/21/13 10/22/13
f 10/22/13 12/23/20 11/20/19
f 23/19/18 50/24/21 21/25/22
f 21/25/22 22/17/16 23/19/18
f 44/10/10 30/1/1 42/4/4
f 42/4/4 43/26/23 44/10/10
f 2/27/24 52/28/25 51/29/26
f 51/29/26 4/16/15 2/27/24
f 41/30/27 38/31/28 3/15/14
f 3/15/14 5/11/11 41/30/27
f 16/32/29 14/33/30 10/22/13
f 10/22/13 25/34/31 16/32/29
f 8/13/13 6/12/12 24/18/17
f 14/33/30 15/35/32 13/36/33
f 13/36/33 12/23/20 14/33/30
f 34/7/7 36/37/34 41/30/27
f 41/30/27 7/14/13 34/7/7
f 10/22/13 14/33/30 12/23/20
f 36/37/34 37/38/35 38/31/28
f 38/31/28 41/30/27 36/37/34
f 19/39/36 17/40/37 18/41/38
f 18/41/38 20/42/39 19/39/36
f 50/24/21 49/43/40 48/44/41
f 48/44/41 21/25/22 50/24/21
f 38/31/28 37/38/35 39/45/42
f 39/45/42 40/46/43 38/31/28
f 6/12/12 4/16/15 51/29/26
f 51/29/26 24/18/17 6/12/12
f 50/24/21 23/19/18 24/18/17
f 24/18/17 51/29/26 50/24/21
f 8/13/13 22/17/16 25/34/31
f 25/34/31 10/22/13 8/13/13
f 25/34/31 22/17/16 21/25/22
f 21/25/22 18/41/38 25/34/31
f 18/41/38 17/40/37 16/32/29
f 16/32/29 25/34/31 18/41/38
f 28/3/3 29/2/2 13/36/33
f 13/36/33 27/47/44 28/3/3
f 32/9/9 33/8/8 9/21/13
f 9/21/13 31/48/45 32/9/9
f 29/2/2 30/1/1 31/48/45
f 31/48/45 11/20/19 29/2/2
f 3/15/14 1/49/46 2/27/24
f 2/27/24 4/16/15 3/15/14
f 5/11/11 7/14/13 41/30/27
f 33/8/8 34/7/7 7/14/13
f 7/14/13 9/21/13 33/8/8
f 8/13/13 10/22/13 9/21/13
f 9/21/13 7/14/13 8/13/13
f 36/37/34 34/7/7 35/6/6
f 35/6/6 37/38/35 36/37/34
f 46/50/47 45/5/5 44/10/10
f 44/10/10 43/26/23 46/50/47
f 20/42/39 18/41/38 21/25/22
f 21/25/22 48/44/41 20/42/39
f 9/21/13 11/20/19 31/48/45
f 46/50/47 47/51/48 35/6/6
f 35/6/6 45/5/5 46/50/47
f 16/32/29 17/40/37 15/35/32
f 15/35/32 14/33/30 16/32/29
f 15/35/32 17/40/37 19/39/36
f 19/39/36 26/52/49 15/35/32
f 35/6/6 47/51/48 39/45/42
f 39/45/42 37/38/35 35/6/6
f 27/47/44 13/36/33 15/35/32
f 15/35/32 26/52/49 27/47/44
f 50/24/21 51/29/26 52/28/25
f 52/28/25 49/43/40 50/24/21
f 3/15/14 38/31/28 40/46/43
f 40/46/43 1/49/46 3/15/14
f 11/20/19 12/23/20 13/36/33
f 13/36/33 29/2/2 11/20/19
f 32/9/9 31/48/45 30/1/1
f 30/1/1 44/10/10 32/9/9
f 73/53/50 71/54/51 72/55/52
f 72/55/52 74/56/53 73/53/50
f 75/57/54 73/53/50 74/56/53
f 74/56/53 76/58/55 75/57/54
f 60/59/56 62/60/57 61/61/58
f 61/61/58 59/62/59 60/59/56
f 77/63/60 75/57/54 76/58/55
f 76/58/55 78/64/61 77/63/60
f 69/65/62 67/66/63 68/67/64
f 68/67/64 70/68/65 69/65/62
f 57/69/66 58/70/67 60/59/56
f 60/59/56 59/62/59 57/69/66
f 65/71/68 63/72/69 64/73/70
f 64/73/70 66/74/71 65/71/68
f 96/75/72 98/76/73 99/77/72
f 99/77/72 97/78/74 96/75/72
f 55/79/75 53/80/76 54/81/77
f 54/81/77 56/82/78 55/79/75
f 57/69/66 55/79/75 56/82/78
f 56/82/78 58/70/67 57/69/66
f 66/74/71 68/67/64 67/66/63
f 67/66/63 65/71/68 66/74/71
f 63/72/69 61/61/58 62/60/57
f 62/60/57 64/73/70 63/72/69
f 66/74/71 64/73/70 84/83/79
f 84/83/79 85/84/80 66/74/71
f 90/85/81 76/58/55 74/56/53
f 74/56/53 89/86/82 90/85/81
f 90/85/81 91/87/83 78/64/61
f 78/64/61 76/58/55 90/85/81
f 72/55/52 70/68/65 87/88/84
f 87/88/84 88/89/85 72/55/52
f 62/60/57 60/59/56 82/90/86
f 82/90/86 83/91/87 62/60/57
f 88/89/85 89/86/82 74/56/53
f 74/56/53 72/55/52 88/89/85
f 97/78/74 94/92/88 95/93/89
f 95/93/89 96/75/72 97/78/74
f 84/83/79 64/73/70 62/60/57
f 62/60/57 83/91/87 84/83/79
f 54/81/77 79/94/90 80/95/91
f 80/95/91 56/82/78 54/81/77
f 81/96/92 82/90/86 60/59/56
f 60/59/56 58/70/67 81/96/92
f 68/67/64 86/97/93 87/88/84
f 87/88/84 70/68/65 68/67/64
f 85/84/80 86/97/93 68/67/64
f 68/67/64 66/74/71 85/84/80
f 100/98/74 101/99/74 102/100/74
f 102/100/74 103/101/94 100/98/74
f 100/98/74 99/77/72 98/76/73
f 98/76/73 101/99/74 100/98/74
f 81/96/92 58/70/67 56/82/78
f 56/82/78 80/95/91 81/96/92
f 92/102/94 93/103/88 95/93/89
f 95/93/89 94/92/88 92/102/94
f 71/54/51 69/65/62 70/68/65
f 70/68/65 72/55/52 71/54/51
f 149/104/95 150/105/96 147/106/97
f 147/106/97 148/107/98 149/104/95
f 143/108/99 144/109/99 146/110/100
f 146/110/100 145/111/101 143/108/99
f 113/112/102 119/113/103 118/114/103
f 118/114/103 109/115/104 113/112/102
f 108/116/105 110/117/106 111/118/106
f 111/118/106 109/115/104 108/116/105
f 111/118/106 112/119/106 113/112/102
f 113/112/102 109/115/104 111/118/106
f 108/116/105 117/120/13 116/121/13
f 137/122/107 126/123/108 122/124/109
f 122/124/109 136/125/109 137/122/107
f 131/126/110 133/127/111 134/128/112
f 134/128/112 129/129/113 131/126/110
f 121/130/109 122/124/109 124/131/109
f 124/131/109 123/132/109 121/130/109
f 137/122/107 136/125/109 139/133/114
f 139/133/114 140/134/115 137/122/107
f 113/112/102 112/119/106 114/135/106
f 114/135/106 115/136/116 113/112/102
f 129/129/113 130/137/117 132/138/118
f 132/138/118 131/126/110 129/129/113
f 126/123/108 125/139/119 124/131/109
f 124/131/109 122/124/109 126/123/108
f 134/128/112 127/140/120 128/141/121
f 128/141/121 129/129/113 134/128/112
f 125/139/119 126/123/108 127/140/120
f 127/140/120 135/142/122 125/139/119
f 128/141/121 138/143/123 130/137/117
f 130/137/117 129/129/113 128/141/121
f 138/143/123 128/141/121 137/122/107
f 137/122/107 140/134/115 138/143/123
f 141/144/124 142/145/124 138/143/123
f 138/143/123 140/134/115 141/144/124
f 107/146/125 105/147/125 108/116/105
f 108/116/105 109/115/104 107/146/125
f 145/111/101 146/110/100 148/107/98
f 148/107/98 147/106/97 145/111/101
f 126/123/108 137/122/107 128/141/121
f 128/141/121 127/140/120 126/123/108
f 106/148/126 104/149/126 105/147/125
f 105/147/125 107/146/125 106/148/126
f 115/136/116 114/135/106 110/117/106
f 110/117/106 108/116/105 115/136/116
f 153/150/13 115/136/116 108/116/105
f 108/116/105 116/121/13 153/150/13
f 134/128/112 152/151/99 135/142/122
f 135/142/122 127/140/120 134/128/112
f 156/152/103 118/114/103 119/113/103
f 119/113/103 120/153/103 156/152/103
f 149/104/95 155/154/103 151/155/103
f 151/155/103 150/105/96 149/104/95
f 118/114/103 154/156/103 109/115/104
f 234/157/127 233/158/128 231/159/129
f 231/159/129 229/160/130 234/157/127
f 189/161/131 187/162/132 188/163/133
f 188/163/133 190/164/134 189/161/131
f 172/165/135 171/166/135 173/167/136
f 173/167/136 174/168/136 172/165/135
f 198/169/137 199/170/138 201/171/139
f 201/171/139 200/172/140 198/169/137
f 161/173/141 163/174/142 164/175/142
f 164/175/142 162/176/141 161/173/141
f 178/177/143 177/178/143 179/179/144
f 179/179/144 180/180/145 178/177/143
f 176/181/146 174/168/136 173/167/136
f 173/167/136 175/182/146 176/181/146
f 214/183/147 216/184/148 217/185/149
f 217/185/149 215/186/150 214/183/147
f 219/187/151 206/188/152 221/189/153
f 221/189/153 220/190/154 219/187/151
f 230/191/155 232/192/156 220/190/154
f 220/190/154 221/189/153 230/191/155
f 171/166/135 172/165/135 170/193/157
f 170/193/157 169/194/157 171/166/135
f 200/172/140 201/171/139 203/195/158
f 203/195/158 202/196/159 200/172/140
f 193/197/160 218/198/161 217/185/149
f 217/185/149 216/184/148 193/197/160
f 212/199/162 203/195/158 201/171/139
f 201/171/139 214/183/147 212/199/162
f 198/169/137 197/200/163 196/201/164
f 196/201/164 199/170/138 198/169/137
f 214/183/147 201/171/139 199/170/138
f 199/170/138 216/184/148 214/183/147
f 207/202/165 211/203/166 209/204/167
f 209/204/167 208/205/168 207/202/165
f 224/206/169 223/207/170 222/208/171
f 222/208/171 210/209/172 224/206/169
f 229/160/130 228/210/173 227/211/174
f 227/211/174 234/157/127 229/160/130
f 231/159/129 232/192/156 230/191/155
f 230/191/155 229/160/130 231/159/129
f 166/212/175 165/213/175 167/214/176
f 167/214/176 168/215/176 166/212/175
f 165/213/175 166/212/175 164/175/142
f 164/175/142 163/174/142 165/213/175
f 180/180/145 179/179/144 181/216/177
f 181/216/177 182/217/177 180/180/145
f 202/196/159 203/195/158 205/218/178
f 205/218/178 204/219/179 202/196/159
f 168/215/176 167/214/176 169/194/157
f 169/194/157 170/193/157 168/215/176
f 196/201/164 197/200/163 195/220/180
f 195/220/180 194/221/181 196/201/164
f 229/160/130 230/191/155 223/207/170
f 223/207/170 228/210/173 229/160/130
f 224/206/169 225/222/182 228/210/173
f 228/210/173 223/207/170 224/206/169
f 212/199/162 213/223/183 211/203/166
f 211/203/166 207/202/165 212/199/162
f 206/188/152 205/218/178 207/202/165
f 207/202/165 208/205/168 206/188/152
f 227/211/174 228/210/173 225/222/182
f 225/222/182 226/224/184 227/211/174
f 186/225/185 184/226/186 192/227/187
f 192/227/187 191/228/188 186/225/185
f 208/205/168 209/204/167 210/209/172
f 210/209/172 222/208/171 208/205/168
f 223/207/170 230/191/155 221/189/153
f 221/189/153 222/208/171 223/207/170
f 221/189/153 206/188/152 208/205/168
f 208/205/168 222/208/171 221/189/153
f 187/162/132 185/229/189 186/225/185
f 186/225/185 188/163/133 187/162/132
f 194/221/181 195/220/180 190/164/134
f 190/164/134 188/163/133 194/221/181
f 199/170/138 196/201/164 193/197/160
f 193/197/160 216/184/148 199/170/138
f 194/221/181 191/228/188 193/197/160
f 193/197/160 196/201/164 194/221/181
f 185/229/189 183/230/190 184/226/186
f 184/226/186 186/225/185 185/229/189
f 212/199/162 214/183/147 215/186/150
f 215/186/150 213/223/183 212/199/162
f 193/197/160 191/228/188 192/227/187
f 192/227/187 218/198/161 193/197/160
f 188/163/133 186/225/185 191/228/188
f 191/228/188 194/221/181 188/163/133
f 176/181/146 175/182/146 177/178/143
f 177/178/143 178/177/143 176/181/146
f 204/219/179 205/218/178 206/188/152
f 206/188/152 219/187/151 204/219/179
f 160/231/191 158/232/192 161/173/141
f 161/173/141 162/176/141 160/231/191
f 159/233/193 157/234/193 158/232/192
f 158/232/192 160/231/191 159/233/193
f 203/195/158 212/199/162 207/202/165
f 207/202/165 205/218/178 203/195/158
f 337/235/194 341/236/195 342/237/196
f 342/237/196 338/238/197 337/235/194
f 342/237/196 343/239/198 344/240/199
f 344/240/199 338/238/197 342/237/196
f 344/240/199 343/239/198 345/241/200
f 345/241/200 346/242/201 344/240/199
f 249/243/202 356/244/203 357/245/204
f 357/245/204 358/246/205 249/243/202
f 331/247/206 325/248/207 351/249/208
f 351/249/208 352/250/209 331/247/206
f 356/244/203 354/251/210 355/252/211
f 355/252/211 357/245/204 356/244/203
f 287/253/212 289/254/213 288/255/214
f 288/255/214 286/256/215 287/253/212
f 338/238/197 344/240/199 339/257/216
f 339/257/216 334/258/217 338/238/197
f 319/259/218 306/260/219 316/261/220
f 316/261/220 318/262/221 319/259/218
f 262/263/222 263/264/223 267/265/224
f 267/265/224 272/266/225 262/263/222
f 299/267/226 304/268/227 305/269/228
f 305/269/228 300/270/229 299/267/226
f 320/271/230 326/272/231 321/273/232
f 321/273/232 310/274/233 320/271/230
f 312/275/234 311/276/235 310/274/233
f 310/274/233 321/273/232 312/275/234
f 291/277/236 296/278/237 297/279/238
f 297/279/238 293/280/239 291/277/236
f 274/281/240 275/282/241 273/283/242
f 273/283/242 272/266/225 274/281/240
f 303/284/243 316/261/220 306/260/219
f 306/260/219 304/268/227 303/284/243
f 354/251/210 253/285/244 348/286/245
f 348/286/245 347/287/246 354/251/210
f 339/257/216 344/240/199 346/242/201
f 346/242/201 340/288/247 339/257/216
f 308/289/248 307/290/249 306/260/219
f 306/260/219 319/259/218 308/289/248
f 340/288/247 257/291/250 335/292/251
f 335/292/251 339/257/216 340/288/247
f 305/269/228 304/268/227 306/260/219
f 306/260/219 307/290/249 305/269/228
f 309/293/252 313/294/253 307/290/249
f 307/290/249 308/289/248 309/293/252
f 307/290/249 313/294/253 314/295/254
f 314/295/254 305/269/228 307/290/249
f 257/291/250 258/296/255 259/297/256
f 259/297/256 335/292/251 257/291/250
f 244/298/257 242/299/258 262/263/222
f 262/263/222 261/300/259 244/298/257
f 299/267/226 300/270/229 296/278/237
f 296/278/237 295/301/260 299/267/226
f 257/291/250 255/302/261 256/303/262
f 256/303/262 258/296/255 257/291/250
f 296/278/237 300/270/229 301/304/263
f 301/304/263 297/279/238 296/278/237
f 319/259/218 320/271/230 310/274/233
f 310/274/233 308/289/248 319/259/218
f 338/238/197 334/258/217 333/305/264
f 333/305/264 337/235/194 338/238/197
f 252/306/265 282/307/266 283/308/267
f 283/308/267 254/309/268 252/306/265
f 329/310/269 330/311/270 324/312/271
f 324/312/271 328/313/272 329/310/269
f 259/297/256 330/311/270 329/310/269
f 329/310/269 335/292/251 259/297/256
f 311/276/235 309/293/252 308/289/248
f 308/289/248 310/274/233 311/276/235
f 239/314/273 240/315/274 242/299/258
f 242/299/258 241/316/275 239/314/273
f 327/317/276 333/305/264 328/313/272
f 328/313/272 322/318/277 327/317/276
f 324/312/271 323/319/278 322/318/277
f 322/318/277 328/313/272 324/312/271
f 336/320/279 332/321/280 331/247/206
f 331/247/206 352/250/209 336/320/279
f 303/284/243 304/268/227 299/267/226
f 299/267/226 298/322/281 303/284/243
f 260/323/282 261/300/259 273/283/242
f 273/283/242 276/324/283 260/323/282
f 276/324/283 273/283/242 275/282/241
f 275/282/241 278/325/284 276/324/283
f 260/323/282 246/326/285 244/298/257
f 244/298/257 261/300/259 260/323/282
f 253/285/244 254/309/268 255/302/261
f 255/302/261 348/286/245 253/285/244
f 254/309/268 283/308/267 256/303/262
f 256/303/262 255/302/261 254/309/268
f 245/327/286 243/328/287 244/298/257
f 244/298/257 246/326/285 245/327/286
f 284/329/288 285/330/289 287/253/212
f 287/253/212 286/256/215 284/329/288
f 253/285/244 354/251/210 356/244/203
f 356/244/203 251/331/290 253/285/244
f 289/254/213 291/277/236 290/332/291
f 290/332/291 288/255/214 289/254/213
f 321/273/232 326/272/231 327/317/276
f 327/317/276 322/318/277 321/273/232
f 334/258/217 339/257/216 335/292/251
f 335/292/251 329/310/269 334/258/217
f 280/333/292 277/334/293 279/335/294
f 279/335/294 281/336/295 280/333/292
f 271/337/296 274/281/240 272/266/225
f 272/266/225 267/265/224 271/337/296
f 322/318/277 323/319/278 312/275/234
f 312/275/234 321/273/232 322/318/277
f 282/307/266 252/306/265 280/333/292
f 280/333/292 281/336/295 282/307/266
f 278/325/284 279/335/294 277/334/293
f 277/334/293 276/324/283 278/325/284
f 325/248/207 318/262/221 350/338/297
f 350/338/297 351/249/208 325/248/207
f 248/339/298 250/340/299 249/243/202
f 249/243/202 247/341/300 248/339/298
f 237/342/301 235/343/302 236/344/303
f 236/344/303 238/345/304 237/342/301
f 334/258/217 329/310/269 328/313/272
f 328/313/272 333/305/264 334/258/217
f 253/285/244 251/331/290 252/306/265
f 252/306/265 254/309/268 253/285/244
f 348/286/245 255/302/261 257/291/250
f 257/291/250 340/288/247 348/286/245
f 280/333/292 250/340/299 248/339/298
f 248/339/298 277/334/293 280/333/292
f 333/305/264 327/317/276 332/321/280
f 332/321/280 337/235/194 333/305/264
f 298/322/281 299/267/226 295/301/260
f 295/301/260 294/346/305 298/322/281
f 289/254/213 295/301/260 296/278/237
f 296/278/237 291/277/236 289/254/213
f 347/287/246 348/286/245 340/288/247
f 340/288/247 346/242/201 347/287/246
f 268/347/306 270/348/307 271/337/296
f 271/337/296 267/265/224 268/347/306
f 290/332/291 291/277/236 293/280/239
f 293/280/239 292/349/308 290/332/291
f 287/253/212 294/346/305 295/301/260
f 295/301/260 289/254/213 287/253/212
f 242/299/258 240/315/274 263/264/223
f 263/264/223 262/263/222 242/299/258
f 266/350/309 268/347/306 264/351/310
f 264/351/310 265/352/311 266/350/309
f 267/265/224 263/264/223 264/351/310
f 264/351/310 268/347/306 267/265/224
f 242/299/258 244/298/257 243/328/287
f 243/328/287 241/316/275 242/299/258
f 247/341/300 359/353/312 245/327/286
f 245/327/286 246/326/285 247/341/300
f 263/264/223 240/315/274 238/345/304
f 238/345/304 264/351/310 263/264/223
f 260/323/282 276/324/283 277/334/293
f 277/334/293 248/339/298 260/323/282
f 273/283/242 261/300/259 262/263/222
f 262/263/222 272/266/225 273/283/242
f 268/347/306 266/350/309 269/354/313
f 269/354/313 270/348/307 268/347/306
f 359/353/312 247/341/300 249/243/202
f 249/243/202 358/246/205 359/353/312
f 337/235/194 332/321/280 336/320/279
f 336/320/279 341/236/195 337/235/194
f 239/314/273 237/342/301 238/345/304
f 238/345/304 240/315/274 239/314/273
f 325/248/207 331/247/206 326/272/231
f 326/272/231 320/271/230 325/248/207
f 250/340/299 280/333/292 252/306/265
f 252/306/265 251/331/290 250/340/299
f 303/284/243 298/322/281 302/355/314
f 302/355/314 315/356/315 303/284/243
f 353/357/316 347/287/246 346/242/201
f 346/242/201 345/241/200 353/357/316
f 294/346/305 287/253/212 285/330/289
f 285/330/289 349/358/317 294/346/305
f 331/247/206 332/321/280 327/317/276
f 327/317/276 326/272/231 331/247/206
f 353/357/316 355/252/211 354/251/210
f 354/251/210 347/287/246 353/357/316
f 260/323/282 248/339/298 247/341/300
f 247/341/300 246/326/285 260/323/282
f 318/262/221 316/261/220 317/359/318
f 317/359/318 350/338/297 318/262/221
f 315/356/315 317/359/318 316/261/220
f 316/261/220 303/284/243 315/356/315
f 302/355/314 298/322/281 294/346/305
f 294/346/305 349/358/317 302/355/314
f 356/244/203 249/243/202 250/340/299
f 250/340/299 251/331/290 356/244/203
f 319/259/218 318/262/221 325/248/207
f 325/248/207 320/271/230 319/259/218
f 314/295/254 301/304/263 300/270/229
f 300/270/229 305/269/228 314/295/254
f 264/351/310 238/345/304 236/344/303
f 236/344/303 265/352/311 264/351/310
f 378/360/319 438/361/320 437/362/321
f 437/362/321 376/363/322 378/360/319
f 378/360/319 380/364/323 439/365/324
f 439/365/324 438/361/320 378/360/319
f 377/366/325 379/367/326 380/364/323
f 380/364/323 378/360/319 377/366/325
f 403/368/327 405/369/328 406/370/329
f 406/370/329 404/371/330 403/368/327
f 425/372/331 426/373/332 407/374/333
f 407/374/333 405/369/328 425/372/331
f 381/375/334 379/367/326 503/376/335
f 503/376/335 419/377/336 381/375/334
f 383/378/337 418/379/338 417/380/339
f 417/380/339 385/381/340 383/378/337
f 387/382/341 389/383/342 390/384/343
f 390/384/343 388/385/344 387/382/341
f 381/375/334 383/378/337 384/386/345
f 384/386/345 382/387/346 381/375/334
f 399/388/347 401/389/348 402/390/349
f 402/390/349 400/391/350 399/388/347
f 365/392/351 364/393/352 363/394/353
f 363/394/353 431/395/354 365/392/351
f 389/383/342 391/396/355 392/397/356
f 392/397/356 390/384/343 389/383/342
f 401/389/348 403/368/327 404/371/330
f 404/371/330 402/390/349 401/389/348
f 375/398/357 376/363/322 374/399/358
f 374/399/358 373/400/359 375/398/357
f 373/400/359 374/399/358 372/401/360
f 372/401/360 368/402/361 373/400/359
f 383/378/337 385/381/340 386/403/362
f 386/403/362 384/386/345 383/378/337
f 385/381/340 387/382/341 388/385/344
f 388/385/344 386/403/362 385/381/340
f 467/404/13 466/405/13 469/406/13
f 469/406/13 468/407/13 467/404/13
f 368/402/361 372/401/360 371/408/363
f 371/408/363 366/409/364 368/402/361
f 408/410/365 407/374/333 409/411/366
f 409/411/366 410/412/367 408/410/365
f 364/393/352 365/392/351 366/409/364
f 366/409/364 371/408/363 364/393/352
f 395/413/368 397/414/369 398/415/370
f 398/415/370 396/416/371 395/413/368
f 361/417/372 430/418/373 431/395/354
f 431/395/354 363/394/353 361/417/372
f 397/414/369 399/388/347 400/391/350
f 400/391/350 398/415/370 397/414/369
f 405/369/328 407/374/333 408/410/365
f 408/410/365 406/370/329 405/369/328
f 396/416/371 394/419/374 393/420/375
f 393/420/375 395/413/368 396/416/371
f 409/411/366 411/421/376 412/422/377
f 412/422/377 410/412/367 409/411/366
f 391/396/355 393/420/375 394/419/374
f 394/419/374 392/397/356 391/396/355
f 419/377/336 418/379/338 383/378/337
f 383/378/337 381/375/334 419/377/336
f 367/423/378 369/424/379 368/402/361
f 368/402/361 366/409/364 367/423/378
f 379/367/326 377/366/325 504/425/380
f 504/425/380 503/376/335 379/367/326
f 430/418/373 428/426/381 429/427/382
f 429/427/382 431/395/354 430/418/373
f 426/373/332 427/428/383 409/411/366
f 409/411/366 407/374/333 426/373/332
f 403/368/327 401/389/348 423/429/384
f 423/429/384 424/430/385 403/368/327
f 424/430/385 425/372/331 405/369/328
f 405/369/328 403/368/327 424/430/385
f 415/431/386 389/383/342 387/382/341
f 387/382/341 416/432/387 415/431/386
f 447/433/388 396/416/371 398/415/370
f 398/415/370 448/434/389 447/433/388
f 393/420/375 413/435/390 420/436/391
f 420/436/391 395/413/368 393/420/375
f 393/420/375 391/396/355 414/437/392
f 414/437/392 413/435/390 393/420/375
f 432/438/393 365/392/351 431/395/354
f 431/395/354 429/427/382 432/438/393
f 422/439/394 399/388/347 397/414/369
f 397/414/369 421/440/395 422/439/394
f 422/439/394 423/429/384 401/389/348
f 401/389/348 399/388/347 422/439/394
f 377/366/325 378/360/319 376/363/322
f 376/363/322 375/398/357 377/366/325
f 421/440/395 397/414/369 395/413/368
f 395/413/368 420/436/391 421/440/395
f 452/441/396 406/370/329 408/410/365
f 408/410/365 453/442/397 452/441/396
f 439/365/324 380/364/323 382/387/346
f 382/387/346 440/443/398 439/365/324
f 377/366/325 375/398/357 505/444/399
f 505/444/399 504/425/380 377/366/325
f 416/432/387 387/382/341 385/381/340
f 385/381/340 417/380/339 416/432/387
f 451/445/400 450/446/401 402/390/349
f 402/390/349 404/371/330 451/445/400
f 441/447/402 440/443/398 382/387/346
f 382/387/346 384/386/345 441/447/402
f 394/419/374 446/448/403 445/449/404
f 445/449/404 392/397/356 394/419/374
f 444/450/405 390/384/343 392/397/356
f 392/397/356 445/449/404 444/450/405
f 362/451/406 360/452/407 361/417/372
f 361/417/372 363/394/353 362/451/406
f 376/363/322 437/362/321 436/453/408
f 436/453/408 374/399/358 376/363/322
f 374/399/358 436/453/408 435/454/409
f 435/454/409 372/401/360 374/399/358
f 364/393/352 371/408/363 434/455/410
f 434/455/410 433/456/411 364/393/352
f 389/383/342 415/431/386 414/437/392
f 414/437/392 391/396/355 389/383/342
f 408/410/365 410/412/367 454/457/412
f 454/457/412 453/442/397 408/410/365
f 390/384/343 444/450/405 443/458/413
f 443/458/413 388/385/344 390/384/343
f 442/459/414 386/403/362 388/385/344
f 388/385/344 443/458/413 442/459/414
f 386/403/362 442/459/414 441/447/402
f 441/447/402 384/386/345 386/403/362
f 446/448/403 394/419/374 396/416/371
f 396/416/371 447/433/388 446/448/403
f 452/441/396 451/445/400 404/371/330
f 404/371/330 406/370/329 452/441/396
f 364/393/352 433/456/411 362/451/406
f 362/451/406 363/394/353 364/393/352
f 448/434/389 398/415/370 400/391/350
f 400/391/350 449/460/415 448/434/389
f 496/461/103 497/462/103 498/463/103
f 498/463/103 499/464/103 496/461/103
f 473/465/13 472/466/13 470/467/13
f 470/467/13 471/468/13 473/465/13
f 492/469/103 494/470/103 495/471/103
f 495/471/103 493/472/103 492/469/103
f 492/469/103 493/472/103 490/473/103
f 490/473/103 491/474/103 492/469/103
f 466/405/13 467/404/13 464/475/13
f 464/475/13 465/476/13 466/405/13
f 488/477/103 489/478/103 486/479/103
f 486/479/103 487/480/103 488/477/103
f 461/481/13 460/482/13 462/483/13
f 462/483/13 463/484/13 461/481/13
f 460/482/13 461/481/13 458/485/13
f 458/485/13 459/486/13 460/482/13
f 458/485/13 456/487/13 457/488/13
f 457/488/13 459/486/13 458/485/13
f 479/489/13 476/490/13 477/491/13
f 477/491/13 478/492/13 479/489/13
f 499/464/103 498/463/103 500/493/103
f 500/493/103 501/494/103 499/464/103
f 472/466/13 473/465/13 474/495/13
f 474/495/13 475/496/13 472/466/13
f 494/470/103 497/462/103 496/461/103
f 496/461/103 495/471/103 494/470/103
f 464/475/13 463/484/13 462/483/13
f 462/483/13 465/476/13 464/475/13
f 370/497/416 505/444/399 375/398/357
f 375/398/357 373/400/359 370/497/416
f 489/478/103 488/477/103 491/474/103
f 491/474/103 490/473/103 489/478/103
f 486/479/103 485/498/103 484/499/103
f 484/499/103 487/480/103 486/479/103
f 484/499/103 485/498/103 482/500/103
f 482/500/103 483/501/103 484/499/103
f 476/490/13 475/496/13 474/495/13
f 474/495/13 477/491/13 476/490/13
f 483/501/103 482/500/103 480/502/103
f 480/502/103 481/503/103 483/501/103
f 371/408/363 372/401/360 435/454/409
f 435/454/409 434/455/410 371/408/363
f 370/497/416 373/400/359 368/402/361
f 368/402/361 369/424/379 370/497/416
f 470/467/13 468/407/13 469/406/13
f 469/406/13 471/468/13 470/467/13
f 402/390/349 450/446/401 449/460/415
f 449/460/415 400/391/350 402/390/349
f 379/367/326 381/375/334 382/387/346
f 382/387/346 380/364/323 379/367/326
f 506/504/417 411/421/376 409/411/366
f 409/411/366 427/428/383 506/504/417
f 365/392/351 432/438/393 367/423/378
f 367/423/378 366/409/364 365/392/351
f 454/457/412 410/412/367 412/422/377
f 412/422/377 455/505/418 454/457/412
f 500/493/103 507/506/103 502/507/103
f 502/507/103 501/494/103 500/493/103
